<?xml version="1.0" encoding="UTF-8" standalone="no"?>
<svg
   xmlns:dc="http://purl.org/dc/elements/1.1/"
   xmlns:cc="http://creativecommons.org/ns#"
   xmlns:rdf="http://www.w3.org/1999/02/22-rdf-syntax-ns#"
   xmlns:svg="http://www.w3.org/2000/svg"
   xmlns="http://www.w3.org/2000/svg"
   xmlns:sodipodi="http://sodipodi.sourceforge.net/DTD/sodipodi-0.dtd"
   xmlns:inkscape="http://www.inkscape.org/namespaces/inkscape"
   inkscape:version="1.0 (4035a4f, 2020-05-01)"
   sodipodi:docname="perf.svg"
   viewBox="0 0 480 272"
   height="272"
   width="480"
   xml:space="preserve"
   id="svg10"
   version="1.1"><metadata
     id="metadata16"><rdf:RDF><cc:Work
         rdf:about=""><dc:format>image/svg+xml</dc:format><dc:type
           rdf:resource="http://purl.org/dc/dcmitype/StillImage" /><dc:title></dc:title></cc:Work></rdf:RDF></metadata><defs
     id="defs14"><clipPath
       id="clipPath28"
       clipPathUnits="userSpaceOnUse"><path
         id="path26"
         d="M 0,0 H 360 V 204 H 0 Z" /></clipPath><clipPath
       id="clipPath42"
       clipPathUnits="userSpaceOnUse"><path
         id="path40"
         d="M 0,1 H 360 V 204 H 0 Z" /></clipPath><clipPath
       id="clipPath54"
       clipPathUnits="userSpaceOnUse"><path
         id="path52"
         d="M 66,73 H 349 V 192 H 66 Z" /></clipPath><clipPath
       id="clipPath64"
       clipPathUnits="userSpaceOnUse"><path
         id="path62"
         d="M 66,73 H 349 V 192 H 66 Z" /></clipPath><clipPath
       id="clipPath74"
       clipPathUnits="userSpaceOnUse"><path
         id="path72"
         d="M 66,73 H 349 V 192 H 66 Z" /></clipPath><clipPath
       id="clipPath84"
       clipPathUnits="userSpaceOnUse"><path
         id="path82"
         d="M 0,1 H 360 V 204 H 0 Z" /></clipPath><clipPath
       id="clipPath96"
       clipPathUnits="userSpaceOnUse"><path
         id="path94"
         d="M 0,1 H 360 V 204 H 0 Z" /></clipPath><clipPath
       id="clipPath108"
       clipPathUnits="userSpaceOnUse"><path
         id="path106"
         d="M 0,1 H 360 V 204 H 0 Z" /></clipPath><clipPath
       id="clipPath120"
       clipPathUnits="userSpaceOnUse"><path
         id="path118"
         d="M 0,1 H 360 V 204 H 0 Z" /></clipPath><clipPath
       id="clipPath134"
       clipPathUnits="userSpaceOnUse"><path
         id="path132"
         d="M 0,1 H 360 V 204 H 0 Z" /></clipPath><clipPath
       id="clipPath148"
       clipPathUnits="userSpaceOnUse"><path
         id="path146"
         d="M 0,1 H 360 V 204 H 0 Z" /></clipPath><clipPath
       id="clipPath162"
       clipPathUnits="userSpaceOnUse"><path
         id="path160"
         d="M 0,1 H 360 V 204 H 0 Z" /></clipPath><clipPath
       id="clipPath176"
       clipPathUnits="userSpaceOnUse"><path
         id="path174"
         d="M 0,1 H 360 V 204 H 0 Z" /></clipPath><clipPath
       id="clipPath190"
       clipPathUnits="userSpaceOnUse"><path
         id="path188"
         d="M 0,1 H 360 V 204 H 0 Z" /></clipPath><clipPath
       id="clipPath204"
       clipPathUnits="userSpaceOnUse"><path
         id="path202"
         d="M 0,1 H 360 V 204 H 0 Z" /></clipPath><clipPath
       id="clipPath218"
       clipPathUnits="userSpaceOnUse"><path
         id="path216"
         d="M 0,1 H 360 V 204 H 0 Z" /></clipPath><clipPath
       id="clipPath232"
       clipPathUnits="userSpaceOnUse"><path
         id="path230"
         d="M 0,1 H 360 V 204 H 0 Z" /></clipPath><clipPath
       id="clipPath246"
       clipPathUnits="userSpaceOnUse"><path
         id="path244"
         d="M 0,1 H 360 V 204 H 0 Z" /></clipPath><clipPath
       id="clipPath260"
       clipPathUnits="userSpaceOnUse"><path
         id="path258"
         d="M 0,1 H 360 V 204 H 0 Z" /></clipPath><clipPath
       id="clipPath274"
       clipPathUnits="userSpaceOnUse"><path
         id="path272"
         d="M 0,1 H 360 V 204 H 0 Z" /></clipPath><clipPath
       id="clipPath288"
       clipPathUnits="userSpaceOnUse"><path
         id="path286"
         d="M 0,1 H 360 V 204 H 0 Z" /></clipPath><clipPath
       id="clipPath302"
       clipPathUnits="userSpaceOnUse"><path
         id="path300"
         d="M 0,1 H 360 V 204 H 0 Z" /></clipPath><clipPath
       id="clipPath316"
       clipPathUnits="userSpaceOnUse"><path
         id="path314"
         d="M 0,1 H 360 V 204 H 0 Z" /></clipPath><clipPath
       id="clipPath330"
       clipPathUnits="userSpaceOnUse"><path
         id="path328"
         d="M 0,1 H 360 V 204 H 0 Z" /></clipPath><clipPath
       id="clipPath344"
       clipPathUnits="userSpaceOnUse"><path
         id="path342"
         d="M 0,1 H 360 V 204 H 0 Z" /></clipPath><clipPath
       id="clipPath358"
       clipPathUnits="userSpaceOnUse"><path
         id="path356"
         d="M 0,1 H 360 V 204 H 0 Z" /></clipPath><clipPath
       id="clipPath372"
       clipPathUnits="userSpaceOnUse"><path
         id="path370"
         d="M 0,1 H 360 V 204 H 0 Z" /></clipPath><clipPath
       id="clipPath386"
       clipPathUnits="userSpaceOnUse"><path
         id="path384"
         d="M 0,1 H 360 V 204 H 0 Z" /></clipPath><clipPath
       id="clipPath400"
       clipPathUnits="userSpaceOnUse"><path
         id="path398"
         d="M 0,1 H 360 V 204 H 0 Z" /></clipPath><clipPath
       id="clipPath414"
       clipPathUnits="userSpaceOnUse"><path
         id="path412"
         d="M 0,1 H 360 V 204 H 0 Z" /></clipPath><clipPath
       id="clipPath428"
       clipPathUnits="userSpaceOnUse"><path
         id="path426"
         d="M 0,1 H 360 V 204 H 0 Z" /></clipPath><clipPath
       id="clipPath438"
       clipPathUnits="userSpaceOnUse"><path
         id="path436"
         d="M 0,1 H 360 V 204 H 0 Z" /></clipPath><clipPath
       id="clipPath452"
       clipPathUnits="userSpaceOnUse"><path
         id="path450"
         d="M 0,1 H 360 V 204 H 0 Z" /></clipPath><clipPath
       id="clipPath462"
       clipPathUnits="userSpaceOnUse"><path
         id="path460"
         d="M 0,1 H 360 V 204 H 0 Z" /></clipPath><clipPath
       id="clipPath476"
       clipPathUnits="userSpaceOnUse"><path
         id="path474"
         d="M 0,1 H 360 V 204 H 0 Z" /></clipPath><clipPath
       id="clipPath486"
       clipPathUnits="userSpaceOnUse"><path
         id="path484"
         d="M 0,1 H 360 V 204 H 0 Z" /></clipPath><clipPath
       id="clipPath500"
       clipPathUnits="userSpaceOnUse"><path
         id="path498"
         d="M 0,0 H 360 V 204 H 0 Z" /></clipPath><clipPath
       id="clipPath514"
       clipPathUnits="userSpaceOnUse"><path
         id="path512"
         d="M 0,0 H 360 V 204 H 0 Z" /></clipPath><clipPath
       id="clipPath528"
       clipPathUnits="userSpaceOnUse"><path
         id="path526"
         d="M 0,0 H 360 V 204 H 0 Z" /></clipPath><clipPath
       id="clipPath542"
       clipPathUnits="userSpaceOnUse"><path
         id="path540"
         d="M 0,0 H 360 V 204 H 0 Z" /></clipPath><clipPath
       id="clipPath556"
       clipPathUnits="userSpaceOnUse"><path
         id="path554"
         d="M 0,0 H 360 V 204 H 0 Z" /></clipPath><clipPath
       id="clipPath570"
       clipPathUnits="userSpaceOnUse"><path
         id="path568"
         d="M 0,0 H 360 V 204 H 0 Z" /></clipPath><clipPath
       id="clipPath584"
       clipPathUnits="userSpaceOnUse"><path
         id="path582"
         d="M 0,0 H 360 V 204 H 0 Z" /></clipPath><clipPath
       id="clipPath598"
       clipPathUnits="userSpaceOnUse"><path
         id="path596"
         d="M 0,0 H 360 V 204 H 0 Z" /></clipPath><clipPath
       id="clipPath612"
       clipPathUnits="userSpaceOnUse"><path
         id="path610"
         d="M 0,0 H 360 V 204 H 0 Z" /></clipPath><clipPath
       id="clipPath626"
       clipPathUnits="userSpaceOnUse"><path
         id="path624"
         d="M 0,0 H 360 V 204 H 0 Z" /></clipPath></defs><sodipodi:namedview
     inkscape:current-layer="g18"
     inkscape:window-maximized="0"
     inkscape:window-y="23"
     inkscape:window-x="0"
     inkscape:cy="122.43573"
     inkscape:cx="245.25068"
     inkscape:zoom="2.2854167"
     showgrid="false"
     id="namedview12"
     inkscape:window-height="912"
     inkscape:window-width="1689"
     inkscape:pageshadow="2"
     inkscape:pageopacity="0"
     guidetolerance="10"
     gridtolerance="10"
     objecttolerance="10"
     borderopacity="1"
     bordercolor="#666666"
     pagecolor="#ffffff" /><g
     transform="matrix(1.3333333,0,0,-1.3333333,0,272)"
     inkscape:label="perf"
     inkscape:groupmode="layer"
     id="g18"><g
       id="g20" /><g
       id="g22"><g
         clip-path="url(#clipPath28)"
         id="g24"><path
           id="path30"
           style="fill:#ffffff;fill-opacity:1;fill-rule:nonzero;stroke:none"
           d="M 0,204 H 360 V 0 H 0 Z" /></g></g><g
       id="g36"><g
         clip-path="url(#clipPath42)"
         id="g38"><g
           transform="matrix(7.874016e-5,0,0,-7.874016e-5,66.5,191.5)"
           id="g44"><path
             id="path46"
             style="fill:none;stroke:#d9d9d9;stroke-width:9525;stroke-linecap:butt;stroke-linejoin:round;stroke-miterlimit:10;stroke-dasharray:none;stroke-opacity:1"
             d="M 0,1333500 H 3594100 M 0,1168400 H 3594100 M 0,1003300 H 3594100 M 0,838200 H 3594100 M 0,660400 H 3594100 M 0,495300 H 3594100 M 0,330200 H 3594100 M 0,165100 H 3594100 M 0,0 h 3594100" /></g></g></g><g
       id="g48"><g
         clip-path="url(#clipPath54)"
         id="g50"><path
           id="path56"
           style="fill:#4472c4;fill-opacity:1;fill-rule:nonzero;stroke:none"
           d="m 74,103 h 6 V 73 h -6 z m 35,5 h 6 V 73 h -6 z m 35,-5 h 6 V 73 h -6 z m 35,-14 h 7 V 73 h -7 z m 36,52 h 6 V 73 h -6 z m 35,-64 h 6 v -4 h -6 z m 35,55 h 6 V 73 h -6 z m 35,-11 h 7 V 73 h -7 z" /></g></g><g
       id="g58"><g
         clip-path="url(#clipPath64)"
         id="g60"><path
           id="path66"
           style="fill:#ed7d31;fill-opacity:1;fill-rule:nonzero;stroke:none"
           d="m 82,90 h 6 V 73 h -6 z m 35,-1 h 6 V 73 h -6 z m 35,8 h 6 V 73 h -6 z m 35,-16 h 6 v -8 h -6 z m 36,55 h 6 V 73 h -6 z m 35,-60 h 6 v -3 h -6 z m 35,53 h 6 V 73 h -6 z m 35,-9 h 6 V 73 h -6 z" /></g></g><g
       id="g68"><g
         clip-path="url(#clipPath74)"
         id="g70"><path
           id="path76"
           style="fill:#a5a5a5;fill-opacity:1;fill-rule:nonzero;stroke:none"
           d="m 89,105 h 7 V 73 h -7 z m 36,3 h 6 V 73 h -6 z m 35,-7 h 6 V 73 h -6 z m 35,-14 h 6 V 73 h -6 z m 35,92 h 7 V 73 h -7 z M 266,77 h 6 v -4 h -6 z m 35,95 h 6 V 73 h -6 z m 35,-21 h 6 V 73 h -6 z" /></g></g><g
       id="g78"><g
         clip-path="url(#clipPath84)"
         id="g80"><g
           transform="matrix(7.874016e-5,0,0,-7.874016e-5,66.5,72.5)"
           id="g86"><path
             id="path88"
             style="fill:none;stroke:#d9d9d9;stroke-width:9525;stroke-linecap:butt;stroke-linejoin:round;stroke-miterlimit:10;stroke-dasharray:none;stroke-opacity:1"
             d="M 0,0 3594100,1" /></g></g></g><g
       id="g90"><g
         clip-path="url(#clipPath96)"
         id="g92"><g
           transform="matrix(7.874016e-5,0,0,-7.874016e-5,66.5,72.5)"
           id="g98"><path
             id="path100"
             style="fill:none;stroke:#d9d9d9;stroke-width:9525;stroke-linecap:butt;stroke-linejoin:round;stroke-miterlimit:10;stroke-dasharray:none;stroke-opacity:1"
             d="M 0,0 V 266700 M 901700,0 V 266700 M 1790700,0 V 266700 M 3594100,0 v 266700" /></g></g></g><g
       id="g102"><g
         clip-path="url(#clipPath108)"
         id="g104"><g
           transform="matrix(7.874016e-5,0,0,-7.874016e-5,66.5,51.5)"
           id="g110"><path
             id="path112"
             style="fill:none;stroke:#d9d9d9;stroke-width:9525;stroke-linecap:butt;stroke-linejoin:round;stroke-miterlimit:10;stroke-dasharray:none;stroke-opacity:1"
             d="M 0,0 V 266700 M 901700,0 V 266700 M 1790700,0 V 266700 M 3594100,0 v 266700" /></g></g></g><g
       id="g114"><g
         clip-path="url(#clipPath120)"
         id="g116"><g
           transform="translate(51.22016,-134)"
           id="g122"><text
             id="text126"
             style="font-variant:normal;font-weight:normal;font-size:11px;font-family:Calibri;-inkscape-font-specification:Calibri;writing-mode:lr-tb;fill:#000000;fill-opacity:1;fill-rule:nonzero;stroke:none"
             transform="matrix(1,0,0,-1,0,204)"><tspan
               id="tspan124"
               y="0"
               x="0">0</tspan></text></g></g></g><g
       id="g128"><g
         clip-path="url(#clipPath134)"
         id="g130"><g
           transform="translate(34.49504,-120)"
           id="g136"><text
             id="text140"
             style="font-variant:normal;font-weight:normal;font-size:11px;font-family:Calibri;-inkscape-font-specification:Calibri;writing-mode:lr-tb;fill:#000000;fill-opacity:1;fill-rule:nonzero;stroke:none;letter-spacing:-0.75000002px"
             transform="matrix(1,0,0,-1,0,204)"><tspan
               y="0"
               x="0"
               id="tspan138"
               sodipodi:role="line">2000</tspan></text></g></g></g><g
       id="g142"><g
         clip-path="url(#clipPath148)"
         id="g144"><g
           transform="translate(34.49504,-107)"
           id="g150"><text
             id="text154"
             style="font-variant:normal;font-weight:normal;font-size:11px;font-family:Calibri;-inkscape-font-specification:Calibri;writing-mode:lr-tb;fill:#000000;fill-opacity:1;fill-rule:nonzero;stroke:none;letter-spacing:-0.75000002px"
             transform="matrix(1,0,0,-1,0,204)"><tspan
               y="0"
               x="0"
               id="tspan152"
               sodipodi:role="line">4000</tspan></text></g></g></g><g
       id="g156"><g
         clip-path="url(#clipPath162)"
         id="g158"><g
           transform="translate(34.49504,-94)"
           id="g164"><text
             id="text168"
             style="font-variant:normal;font-weight:normal;font-size:11px;font-family:Calibri;-inkscape-font-specification:Calibri;writing-mode:lr-tb;fill:#000000;fill-opacity:1;fill-rule:nonzero;stroke:none;letter-spacing:-0.75000002px"
             transform="matrix(1,0,0,-1,0,204)"><tspan
               y="0"
               x="0"
               id="tspan166"
               sodipodi:role="line">6000</tspan></text></g></g></g><g
       id="g170"><g
         clip-path="url(#clipPath176)"
         id="g172"><g
           transform="translate(34.49504,-81)"
           id="g178"><text
             id="text182"
             style="font-variant:normal;font-weight:normal;font-size:11px;font-family:Calibri;-inkscape-font-specification:Calibri;writing-mode:lr-tb;fill:#000000;fill-opacity:1;fill-rule:nonzero;stroke:none;letter-spacing:-0.75000002px"
             transform="matrix(1,0,0,-1,0,204)"><tspan
               y="0"
               x="0"
               id="tspan180"
               sodipodi:role="line">8000</tspan></text></g></g></g><g
       id="g184"><g
         clip-path="url(#clipPath190)"
         id="g186"><g
           transform="translate(28.92,-67)"
           id="g192"><text
             id="text196"
             style="font-variant:normal;font-weight:normal;font-size:11px;font-family:Calibri;-inkscape-font-specification:Calibri;writing-mode:lr-tb;fill:#000000;fill-opacity:1;fill-rule:nonzero;stroke:none;letter-spacing:-0.75000002px"
             transform="matrix(1,0,0,-1,0,204)"><tspan
               y="0"
               x="0"
               id="tspan194"
               sodipodi:role="line">10000</tspan></text></g></g></g><g
       id="g198"><g
         clip-path="url(#clipPath204)"
         id="g200"><g
           transform="translate(28.92,-54)"
           id="g206"><text
             id="text210"
             style="font-variant:normal;font-weight:normal;font-size:11px;font-family:Calibri;-inkscape-font-specification:Calibri;writing-mode:lr-tb;fill:#000000;fill-opacity:1;fill-rule:nonzero;stroke:none;letter-spacing:-0.75000002px"
             transform="matrix(1,0,0,-1,0,204)"><tspan
               y="0"
               x="0"
               id="tspan208"
               sodipodi:role="line">12000</tspan></text></g></g></g><g
       id="g212"><g
         clip-path="url(#clipPath218)"
         id="g214"><g
           transform="translate(28.92,-41)"
           id="g220"><text
             id="text224"
             style="font-variant:normal;font-weight:normal;font-size:11px;font-family:Calibri;-inkscape-font-specification:Calibri;writing-mode:lr-tb;fill:#000000;fill-opacity:1;fill-rule:nonzero;stroke:none;letter-spacing:-0.75000002px"
             transform="matrix(1,0,0,-1,0,204)"><tspan
               y="0"
               x="0"
               id="tspan222"
               sodipodi:role="line">14000</tspan></text></g></g></g><g
       id="g226"><g
         clip-path="url(#clipPath232)"
         id="g228"><g
           transform="translate(28.92,-28)"
           id="g234"><text
             id="text238"
             style="font-variant:normal;font-weight:normal;font-size:11px;font-family:Calibri;-inkscape-font-specification:Calibri;writing-mode:lr-tb;fill:#000000;fill-opacity:1;fill-rule:nonzero;stroke:none;letter-spacing:-0.75000002px"
             transform="matrix(1,0,0,-1,0,204)"><tspan
               y="0"
               x="0"
               id="tspan236"
               sodipodi:role="line">16000</tspan></text></g></g></g><g
       id="g240"><g
         clip-path="url(#clipPath246)"
         id="g242"><g
           transform="translate(28.92,-14)"
           id="g248"><text
             id="text252"
             style="font-variant:normal;font-weight:normal;font-size:11px;font-family:Calibri;-inkscape-font-specification:Calibri;writing-mode:lr-tb;fill:#000000;fill-opacity:1;fill-rule:nonzero;stroke:none;letter-spacing:-0.75000002px"
             transform="matrix(1,0,0,-1,0,204)"><tspan
               y="0"
               x="0"
               id="tspan250"
               sodipodi:role="line">18000</tspan></text></g></g></g><g
       transform="translate(-1.5)"
       id="g254"><g
         clip-path="url(#clipPath260)"
         id="g256"><g
           transform="translate(77.15795,-148)"
           id="g262"><text
             id="text266"
             style="font-variant:normal;font-weight:normal;font-size:11px;font-family:Calibri;-inkscape-font-specification:Calibri;writing-mode:lr-tb;fill:#000000;fill-opacity:1;fill-rule:nonzero;stroke:none"
             transform="matrix(1,0,0,-1,0,204)"><tspan
               y="0"
               x="0"
               id="tspan264"
               sodipodi:role="line">INS</tspan></text></g></g></g><g
       transform="translate(-1.5)"
       id="g268"><g
         clip-path="url(#clipPath274)"
         id="g270"><g
           transform="translate(110.6535,-148)"
           id="g276"><text
             id="text280"
             style="font-variant:normal;font-weight:normal;font-size:11px;font-family:Calibri;-inkscape-font-specification:Calibri;writing-mode:lr-tb;fill:#000000;fill-opacity:1;fill-rule:nonzero;stroke:none"
             transform="matrix(1,0,0,-1,0,204)"><tspan
               y="0"
               x="0"
               id="tspan278"
               sodipodi:role="line">CHK</tspan></text></g></g></g><g
       transform="translate(-1.5)"
       id="g282"><g
         clip-path="url(#clipPath288)"
         id="g284"><g
           transform="translate(146.0692,-148)"
           id="g290"><text
             id="text294"
             style="font-variant:normal;font-weight:normal;font-size:11px;font-family:Calibri;-inkscape-font-specification:Calibri;writing-mode:lr-tb;fill:#000000;fill-opacity:1;fill-rule:nonzero;stroke:none"
             transform="matrix(1,0,0,-1,0,204)"><tspan
               y="0"
               x="0"
               id="tspan292"
               sodipodi:role="line">PUT</tspan></text></g></g></g><g
       transform="translate(-1.5)"
       id="g296"><g
         clip-path="url(#clipPath302)"
         id="g298"><g
           transform="translate(181.5373,-148)"
           id="g304"><text
             id="text308"
             style="font-variant:normal;font-weight:normal;font-size:11px;font-family:Calibri;-inkscape-font-specification:Calibri;writing-mode:lr-tb;fill:#000000;fill-opacity:1;fill-rule:nonzero;stroke:none"
             transform="matrix(1,0,0,-1,0,204)"><tspan
               y="0"
               x="0"
               id="tspan306"
               sodipodi:role="line">GET</tspan></text></g></g></g><g
       transform="translate(-1.5)"
       id="g310"><g
         clip-path="url(#clipPath316)"
         id="g312"><g
           transform="translate(218.1604,-148)"
           id="g318"><text
             id="text322"
             style="font-variant:normal;font-weight:normal;font-size:11px;font-family:Calibri;-inkscape-font-specification:Calibri;writing-mode:lr-tb;fill:#000000;fill-opacity:1;fill-rule:nonzero;stroke:none"
             transform="matrix(1,0,0,-1,0,204)"><tspan
               y="0"
               x="0"
               id="tspan320"
               sodipodi:role="line">INS</tspan></text></g></g></g><g
       transform="translate(-1.5)"
       id="g324"><g
         clip-path="url(#clipPath330)"
         id="g326"><g
           transform="translate(251.6559,-148)"
           id="g332"><text
             id="text336"
             style="font-variant:normal;font-weight:normal;font-size:11px;font-family:Calibri;-inkscape-font-specification:Calibri;writing-mode:lr-tb;fill:#000000;fill-opacity:1;fill-rule:nonzero;stroke:none"
             transform="matrix(1,0,0,-1,0,204)"><tspan
               y="0"
               x="0"
               id="tspan334"
               sodipodi:role="line">CHK</tspan></text></g></g></g><g
       transform="translate(-1.5)"
       id="g338"><g
         clip-path="url(#clipPath344)"
         id="g340"><g
           transform="translate(285.7491,-148)"
           id="g346"><text
             id="text350"
             style="font-variant:normal;font-weight:normal;font-size:11px;font-family:Calibri;-inkscape-font-specification:Calibri;writing-mode:lr-tb;fill:#000000;fill-opacity:1;fill-rule:nonzero;stroke:none"
             transform="matrix(1,0,0,-1,0,204)"><tspan
               y="0"
               x="0"
               id="tspan348"
               sodipodi:role="line">REM</tspan></text></g></g></g><g
       transform="translate(-1.5)"
       id="g352"><g
         clip-path="url(#clipPath358)"
         id="g354"><g
           transform="translate(318.2697,-148)"
           id="g360"><text
             id="text364"
             style="font-variant:normal;font-weight:normal;font-size:11px;font-family:Calibri;-inkscape-font-specification:Calibri;writing-mode:lr-tb;fill:#000000;fill-opacity:1;fill-rule:nonzero;stroke:none"
             transform="matrix(1,0,0,-1,0,204)"><tspan
               y="0"
               x="0"
               id="tspan362"
               sodipodi:role="line">RAND</tspan></text></g></g></g><g
       transform="translate(-3)"
       id="g366"><g
         clip-path="url(#clipPath372)"
         id="g368"><g
           transform="translate(94.04583,-169)"
           id="g374"><text
             id="text378"
             style="font-variant:normal;font-weight:normal;font-size:11px;font-family:Calibri;-inkscape-font-specification:Calibri;writing-mode:lr-tb;fill:#000000;fill-opacity:1;fill-rule:nonzero;stroke:none"
             transform="matrix(1,0,0,-1,0,204)"><tspan
               y="0"
               x="0"
               id="tspan376"
               sodipodi:role="line">BST</tspan></text></g></g></g><g
       transform="translate(-3)"
       id="g380"><g
         clip-path="url(#clipPath386)"
         id="g382"><g
           transform="translate(154.8444,-169)"
           id="g388"><text
             id="text392"
             style="font-variant:normal;font-weight:normal;font-size:11px;font-family:Calibri;-inkscape-font-specification:Calibri;writing-mode:lr-tb;fill:#000000;fill-opacity:1;fill-rule:nonzero;stroke:none"
             transform="matrix(1,0,0,-1,0,204)"><tspan
               y="0"
               x="0"
               id="tspan390"
               sodipodi:role="line">KVStore</tspan></text></g></g></g><g
       transform="translate(-3)"
       id="g394"><g
         clip-path="url(#clipPath400)"
         id="g396"><g
           transform="translate(262.6938,-169)"
           id="g402"><text
             id="text406"
             style="font-variant:normal;font-weight:normal;font-size:11px;font-family:Calibri;-inkscape-font-specification:Calibri;writing-mode:lr-tb;fill:#000000;fill-opacity:1;fill-rule:nonzero;stroke:none"
             transform="matrix(1,0,0,-1,0,204)"><tspan
               y="0"
               x="0"
               id="tspan404"
               sodipodi:role="line">B+Tree</tspan></text></g></g></g><g
       id="g408"><g
         clip-path="url(#clipPath414)"
         id="g410"><g
           transform="rotate(90,69.75,156.75)"
           id="g416"><text
             id="text420"
             style="font-variant:normal;font-weight:normal;font-size:11px;font-family:Calibri;-inkscape-font-specification:Calibri;writing-mode:lr-tb;fill:#000000;fill-opacity:1;fill-rule:nonzero;stroke:none;letter-spacing:-0.75000002px"
             transform="matrix(1,0,0,-1,0,204)"><tspan
               y="0"
               x="0"
               id="tspan418"
               sodipodi:role="line">Execution Time (ms)</tspan></text></g></g></g><g
       transform="translate(-34.5)"
       id="g422"><g
         clip-path="url(#clipPath428)"
         id="g424"><path
           id="path430"
           style="fill:#4472c4;fill-opacity:1;fill-rule:nonzero;stroke:none"
           d="m 117,19 h 6 v -6 h -6 z" /></g></g><g
       transform="translate(-34.5)"
       id="g432"><g
         clip-path="url(#clipPath438)"
         id="g434"><g
           transform="translate(125.8621,-191)"
           id="g440"><text
             id="text444"
             style="font-variant:normal;font-weight:normal;font-size:11px;font-family:Calibri;-inkscape-font-specification:Calibri;writing-mode:lr-tb;fill:#000000;fill-opacity:1;fill-rule:nonzero;stroke:none"
             transform="matrix(1,0,0,-1,0,204)"><tspan
               id="tspan442"
               sodipodi:role="line"
               y="0"
               x="0 6.0005002 15.004 22.005501">PMDK</tspan></text></g></g></g><g
       transform="translate(-31.5)"
       id="g446"><g
         clip-path="url(#clipPath452)"
         id="g448"><path
           id="path454"
           style="fill:#ed7d31;fill-opacity:1;fill-rule:nonzero;stroke:none"
           d="m 163,19 h 6 v -6 h -6 z" /></g></g><g
       transform="translate(-31.5)"
       id="g456"><g
         clip-path="url(#clipPath462)"
         id="g458"><g
           transform="translate(171.5689,-191)"
           id="g464"><text
             id="text468"
             style="font-variant:normal;font-weight:normal;font-size:11px;font-family:Calibri;-inkscape-font-specification:Calibri;writing-mode:lr-tb;fill:#000000;fill-opacity:1;fill-rule:nonzero;stroke:none"
             transform="matrix(1,0,0,-1,0,204)"><tspan
               y="0"
               x="0"
               id="tspan466"
               sodipodi:role="line">Corundum</tspan></text></g></g></g><g
       transform="translate(1.5)"
       id="g470"><g
         clip-path="url(#clipPath476)"
         id="g472"><path
           id="path478"
           style="fill:#a5a5a5;fill-opacity:1;fill-rule:nonzero;stroke:none"
           d="m 209,19 h 6 v -6 h -6 z" /></g></g><g
       transform="translate(1.5)"
       id="g480"><g
         clip-path="url(#clipPath486)"
         id="g482"><g
           transform="translate(217.3706,-191)"
           id="g488"><text
             id="text492"
             style="font-variant:normal;font-weight:normal;font-size:11px;font-family:Calibri;-inkscape-font-specification:Calibri;writing-mode:lr-tb;fill:#000000;fill-opacity:1;fill-rule:nonzero;stroke:none"
             transform="matrix(1,0,0,-1,0,204)"><tspan
               y="0"
               x="0"
               id="tspan490"
               sodipodi:role="line">Corundum-Dynamic</tspan></text></g></g></g></g></svg>
